<svg width="402.1605224609375px" height="122px" xmlns="http://www.w3.org/2000/svg" viewBox="48.91973876953125 14 402.1605224609375 122" style="background: rgba(0, 0, 0, 0);" preserveAspectRatio="xMidYMid"><defs><linearGradient id="editing-sticker-gradient" x1="0.5" y1="0.2" x2="0.5" y2="0.8"><stop offset="0" stop-color="#fd9"></stop><stop offset="1" stop-color="#9df"></stop></linearGradient><filter id="editing-sticker" x="-100%" y="-100%" width="300%" height="300%"><feMorphology operator="erode" radius="1" in="SourceAlpha" result="alpha-erode"></feMorphology><feConvolveMatrix order="3,3" divisor="1" kernelMatrix="0 1 0 1 1 1 0 1 0" in="alpha-erode" result="alpha-round"></feConvolveMatrix><feMorphology operator="dilate" radius="3.5" in="alpha-round" result="dilate-shadow"></feMorphology><feGaussianBlur in="dilate-shadow" stdDeviation="1.5" result="shadow"></feGaussianBlur><feFlood flood-color="#fff" result="flood-sticker"></feFlood><feComposite operator="in" in="flood-sticker" in2="alpha-round" result="comp-sticker"></feComposite><feMorphology operator="dilate" radius="3" in="comp-sticker" result="morph-sticker"></feMorphology><feConvolveMatrix order="3,3" divisor="1" kernelMatrix="0 1 0 1 1 1 0 1 0" in="morph-sticker" result="sticker"></feConvolveMatrix><feMerge><feMergeNode in="shadow"></feMergeNode><feMergeNode in="sticker"></feMergeNode><feMergeNode in="SourceGraphic"></feMergeNode></feMerge></filter></defs><g filter="url(#editing-sticker)"><g transform="translate(109.25508737564087, 99)"><path d="M6.21-31.17L6.21-31.17L6.21-31.17Q4.03-32.83 4.03-36.38L4.03-36.38L4.03-36.38Q4.03-39.94 6.37-41.79L6.37-41.79L6.37-41.79Q8.70-43.65 12.74-43.65L12.74-43.65L12.74-43.65Q15.30-43.65 21.38-42.75L21.38-42.75L25.73-42.11L25.73-42.11Q27.90-41.86 30.18-41.86L30.18-41.86L30.18-41.86Q32.45-41.86 33.98-42.82L33.98-42.82L33.98-42.82Q36.29-40.77 36.29-37.82L36.29-37.82L36.29-37.82Q36.29-34.88 33.66-32.77L33.66-32.77L33.66-32.77Q30.98-30.53 27.52-30.53L27.52-30.53L27.52-30.53Q25.86-30.53 23.17-30.98L23.17-30.98L23.17-30.98Q20.03-21.12 20.03-14.27L20.03-14.27L20.03-14.27Q20.03-7.42 23.49-3.84L23.49-3.84L23.49-3.84Q21.89-0.96 19.52 0.16L19.52 0.16L19.52 0.16Q17.15 1.28 13.60 1.28L13.60 1.28L13.60 1.28Q10.05 1.28 7.84-0.67L7.84-0.67L7.84-0.67Q5.63-2.62 5.63-6.66L5.63-6.66L5.63-6.66Q5.63-11.33 8.19-19.01L8.19-19.01L8.19-19.01Q10.75-26.62 14.59-32.45L14.59-32.45L14.59-32.45Q12.74-32.64 10.82-32.64L10.82-32.64L10.82-32.64Q6.85-32.64 6.21-31.17ZM35.20-15.62L35.20-15.62L35.20-15.62Q35.20-27.71 41.47-35.33L41.47-35.33L41.47-35.33Q48.13-43.58 59.71-43.58L59.71-43.58L59.71-43.58Q68.10-43.58 72.32-39.52L72.32-39.52L72.32-39.52Q76.54-35.46 76.54-26.88L76.54-26.88L76.54-26.88Q76.54-13.82 69.89-6.21L69.89-6.21L69.89-6.21Q63.30 1.28 52.22 1.28L52.22 1.28L52.22 1.28Q43.58 1.28 39.39-3.04L39.39-3.04L39.39-3.04Q35.20-7.36 35.20-15.62ZM52.03-28.86L52.03-28.86L52.03-28.86Q49.15-17.34 49.15-8.26L49.15-8.26L49.15-8.26Q49.15-6.08 49.89-4.67L49.89-4.67L49.89-4.67Q50.62-3.26 52.58-3.26L52.58-3.26L52.58-3.26Q54.53-3.26 55.74-4.19L55.74-4.19L55.74-4.19Q56.96-5.12 57.92-7.23L57.92-7.23L57.92-7.23Q59.46-10.69 60.90-18.02L60.90-18.02L60.90-18.02Q62.34-25.34 62.46-28.38L62.46-28.38L62.46-28.38Q62.59-31.42 62.59-33.73L62.59-33.73L62.59-33.73Q62.59-36.03 61.89-37.50L61.89-37.50L61.89-37.50Q61.18-38.98 59.30-38.98L59.30-38.98L59.30-38.98Q57.41-38.98 56.13-37.82L56.13-37.82L56.13-37.82Q53.76-35.65 52.03-28.86ZM113.02-33.92L113.02-33.92L113.02-33.92Q115.33-33.92 117.12-33.41L117.12-33.41L117.12-33.41Q117.18-33.66 117.31-34.37L117.31-34.37L117.63-36.35L117.63-36.35Q117.89-37.63 118.27-39.74L118.27-39.74L119.30-44.80L132.03-46.08L124.93-8.96L124.93-8.96Q124.86-8.58 124.86-7.94L124.86-7.94L124.86-6.91L124.86-6.91Q124.86-5.50 125.57-4.45L125.57-4.45L125.57-4.45Q126.27-3.39 127.42-3.39L127.42-3.39L127.42-3.39Q126.14-0.38 122.24 0.90L122.24 0.90L122.24 0.90Q120.90 1.28 119.01 1.28L119.01 1.28L119.01 1.28Q117.12 1.28 115.39 0.29L115.39 0.29L115.39 0.29Q113.66-0.70 113.15-2.37L113.15-2.37L113.15-2.37Q112.13-0.70 110.08 0.29L110.08 0.29L110.08 0.29Q108.03 1.28 105.06 1.28L105.06 1.28L105.06 1.28Q102.08 1.28 99.62 0.51L99.62 0.51L99.62 0.51Q97.15-0.26 95.62-1.92L95.62-1.92L95.62-1.92Q92.80-5.18 92.80-12.61L92.80-12.61L92.80-12.61Q92.80-22.21 98.43-28.03L98.43-28.03L98.43-28.03Q104.06-33.92 113.02-33.92ZM112.58-30.08L112.58-30.08L112.58-30.08Q110.21-30.08 108.93-27.52L108.93-27.52L108.93-27.52Q107.65-24.96 106.34-18.62L106.34-18.62L106.34-18.62Q105.02-12.29 105.02-6.59L105.02-6.59L105.02-6.59Q105.02-2.69 107.33-2.69L107.33-2.69L107.33-2.69Q109.38-2.69 110.82-4.74L110.82-4.74L110.82-4.74Q112.26-6.78 112.83-10.18L112.83-10.18L116.29-28.93L116.29-28.93Q114.94-30.08 112.58-30.08ZM146.82 1.28L146.82 1.28L146.82 1.28Q132.74 1.28 132.74-11.97L132.74-11.97L132.74-11.97Q132.74-21.38 137.92-27.46L137.92-27.46L137.92-27.46Q143.42-33.92 152.96-33.92L152.96-33.92L152.96-33.92Q159.87-33.92 163.39-30.72L163.39-30.72L163.39-30.72Q166.91-27.52 166.91-20.80L166.91-20.80L166.91-20.80Q166.91-10.56 161.41-4.61L161.41-4.61L161.41-4.61Q156.03 1.28 146.82 1.28ZM148.48-26.56L148.48-26.56L148.48-26.56Q147.71-24.83 147.10-22.24L147.10-22.24L147.10-22.24Q146.50-19.65 145.73-15.55L145.73-15.55L145.73-15.55Q144.96-11.46 144.96-6.40L144.96-6.40L144.96-6.40Q144.96-4.74 145.50-3.65L145.50-3.65L145.50-3.65Q146.05-2.56 147.52-2.56L147.52-2.56L147.52-2.56Q148.99-2.56 149.92-3.26L149.92-3.26L149.92-3.26Q150.85-3.97 151.55-5.63L151.55-5.63L151.55-5.63Q152.83-8.58 153.86-14.05L153.86-14.05L153.86-14.05Q154.88-19.52 154.98-21.89L154.98-21.89L154.98-21.89Q155.07-24.26 155.07-26.02L155.07-26.02L155.07-26.02Q155.07-27.78 154.56-28.93L154.56-28.93L154.56-28.93Q154.05-30.08 152.61-30.08L152.61-30.08L152.61-30.08Q151.17-30.08 150.21-29.18L150.21-29.18L150.21-29.18Q149.25-28.29 148.48-26.56ZM199.17-3.52L199.17-3.52L199.17-3.52Q197.18 1.28 190.85 1.28L190.85 1.28L190.85 1.28Q187.65 1.28 185.60-0.96L185.60-0.96L185.60-0.96Q183.94-2.82 183.94-4.93L183.94-4.93L183.94-4.93Q183.94-9.73 186.18-20.22L186.18-20.22L190.85-44.80L203.84-46.08L197.63-13.70L197.63-13.70Q196.54-8.96 196.54-7.30L196.54-7.30L196.54-7.30Q196.54-3.65 199.17-3.52ZM219.97-3.52L219.97-3.52L219.97-3.52Q217.98 1.28 211.65 1.28L211.65 1.28L211.65 1.28Q208.38 1.28 206.34-0.96L206.34-0.96L206.34-0.96Q204.61-2.94 204.61-4.93L204.61-4.93L204.61-4.93Q204.61-10.11 206.98-20.22L206.98-20.22L209.34-32.64L222.34-33.92L218.43-13.70L218.43-13.70Q217.34-8.96 217.34-7.30L217.34-7.30L217.34-7.30Q217.34-3.65 219.97-3.52ZM210.50-41.54L210.50-41.54L210.50-41.54Q210.50-44.03 212.58-45.38L212.58-45.38L212.58-45.38Q214.66-46.72 217.66-46.72L217.66-46.72L217.66-46.72Q220.67-46.72 222.50-45.38L222.50-45.38L222.50-45.38Q224.32-44.03 224.32-41.54L224.32-41.54L224.32-41.54Q224.32-39.04 222.30-37.76L222.30-37.76L222.30-37.76Q220.29-36.48 217.28-36.48L217.28-36.48L217.28-36.48Q214.27-36.48 212.38-37.76L212.38-37.76L212.38-37.76Q210.50-39.04 210.50-41.54ZM244.54-22.46L244.54-22.46L244.54-22.46Q245.44-24.83 245.44-26.88L245.44-26.88L245.44-26.88Q245.44-30.66 242.37-30.66L242.37-30.66L242.37-30.66Q240.77-30.66 239.46-29.22L239.46-29.22L239.46-29.22Q238.14-27.78 238.14-25.98L238.14-25.98L238.14-25.98Q238.14-24.70 239.17-23.68L239.17-23.68L239.17-23.68Q240.64-22.27 244.42-19.97L244.42-19.97L244.42-19.97Q248.19-17.66 249.63-15.78L249.63-15.78L249.63-15.78Q251.07-13.89 251.07-11.30L251.07-11.30L251.07-11.30Q251.07-8.70 249.82-6.34L249.82-6.34L249.82-6.34Q248.58-3.97 246.34-2.30L246.34-2.30L246.34-2.30Q241.54 1.28 233.86 1.28L233.86 1.28L233.86 1.28Q229.70 1.28 226.50-0.90L226.50-0.90L226.50-0.90Q223.30-3.01 223.30-5.50L223.30-5.50L223.30-5.50Q223.30-8 225.12-9.47L225.12-9.47L225.12-9.47Q226.94-10.94 229.63-10.94L229.63-10.94L229.63-10.94Q232.32-10.94 233.98-9.92L233.98-9.92L233.98-9.92Q233.15-7.81 233.15-6.40L233.15-6.40L233.15-6.40Q233.15-2.18 236.74-2.18L236.74-2.18L236.74-2.18Q238.27-2.18 239.30-3.14L239.30-3.14L239.30-3.14Q240.32-4.10 240.32-5.76L240.32-5.76L240.32-5.76Q240.32-9.02 234.82-12.48L234.82-12.48L234.82-12.48Q230.34-15.42 229.31-16.58L229.31-16.58L229.31-16.58Q227.58-18.62 227.58-21.18L227.58-21.18L227.58-21.18Q227.58-23.74 228.80-26.18L228.80-26.18L228.80-26.18Q230.02-28.61 232.26-30.34L232.26-30.34L232.26-30.34Q236.93-33.92 245.06-33.92L245.06-33.92L245.06-33.92Q249.22-33.92 251.68-32.26L251.68-32.26L251.68-32.26Q254.14-30.59 254.14-27.78L254.14-27.78L254.14-27.78Q254.14-24.96 252.45-23.36L252.45-23.36L252.45-23.36Q250.75-21.76 247.68-21.76L247.68-21.76L247.68-21.76Q245.57-21.76 244.54-22.46ZM257.54-6.40L257.54-6.40L257.54-6.40Q257.54-8.13 258.43-12.48L258.43-12.48L261.82-29.76L258.05-29.76L258.30-31.68L258.30-31.68Q265.98-33.98 273.41-39.62L273.41-39.62L276.48-39.62L274.94-32.64L279.94-32.64L279.36-29.76L274.43-29.76L271.17-12.48L271.17-12.48Q270.34-8.51 270.34-7.17L270.34-7.17L270.34-7.17Q270.34-4.10 273.02-3.46L273.02-3.46L273.02-3.46Q272.38-1.28 270.08 0L270.08 0L270.08 0Q267.78 1.28 264.51 1.28L264.51 1.28L264.51 1.28Q261.25 1.28 259.39-0.77L259.39-0.77L259.39-0.77Q257.54-2.82 257.54-6.40Z" fill="url(#editing-sticker-gradient)" stroke="#000" stroke-width="2.5"></path></g></g><style>text {
  font-size: 64px;
  font-family: Arial Black;
  dominant-baseline: central;
  text-anchor: middle;
}</style></svg>